<?xml version="1.0" encoding="UTF-8" standalone="no"?>
<!-- Generator: Adobe Illustrator 16.0.0, SVG Export Plug-In . SVG Version: 6.00 Build 0)  -->

<svg
   xmlns:dc="http://purl.org/dc/elements/1.1/"
   xmlns:cc="http://creativecommons.org/ns#"
   xmlns:rdf="http://www.w3.org/1999/02/22-rdf-syntax-ns#"
   xmlns:svg="http://www.w3.org/2000/svg"
   xmlns="http://www.w3.org/2000/svg"
   xmlns:sodipodi="http://sodipodi.sourceforge.net/DTD/sodipodi-0.dtd"
   xmlns:inkscape="http://www.inkscape.org/namespaces/inkscape"
   version="1.1"
   id="Layer_1"
   x="0px"
   y="0px"
   width="126px"
   height="126px"
   viewBox="0 0 126 126"
   enable-background="new 0 0 126 126"
   xml:space="preserve"
   inkscape:version="0.48.4 r9939"
   sodipodi:docname="rss.svg"
   inkscape:export-filename="/var/www/qgis_pt/images/rss.png"
   inkscape:export-xdpi="28.57"
   inkscape:export-ydpi="28.57"><metadata
     id="metadata29"><rdf:RDF><cc:Work
         rdf:about=""><dc:format>image/svg+xml</dc:format><dc:type
           rdf:resource="http://purl.org/dc/dcmitype/StillImage" /><dc:title></dc:title></cc:Work></rdf:RDF></metadata><defs
     id="defs27" /><sodipodi:namedview
     pagecolor="#ffffff"
     bordercolor="#666666"
     borderopacity="1"
     objecttolerance="10"
     gridtolerance="10"
     guidetolerance="10"
     inkscape:pageopacity="0"
     inkscape:pageshadow="2"
     inkscape:window-width="1920"
     inkscape:window-height="1031"
     id="namedview25"
     showgrid="false"
     inkscape:zoom="3.7460317"
     inkscape:cx="55.101752"
     inkscape:cy="44.216005"
     inkscape:window-x="0"
     inkscape:window-y="25"
     inkscape:window-maximized="1"
     inkscape:current-layer="Layer_1" /><g
     id="g3792"><path
       style="fill:#e4f363;fill-opacity:1"
       inkscape:connector-curvature="0"
       id="path7"
       d="m 45.534,89.193 c -1.137,0 -1.782,0.092 -2.121,0.154 v 5.715 h 1.845 c 2.335,0 3.718,-1.167 3.718,-2.98 0,-1.905 -1.291,-2.857 -3.442,-2.889 z" /><path
       style="fill:#e4f363;fill-opacity:1"
       inkscape:connector-curvature="0"
       id="path9"
       d="M 99.874,36.443 C 99.868,35.975 99.72,35.513 99.399,35.148 L 79.731,12.684 C 79.727,12.678 79.721,12.676 79.715,12.67 79.598,12.539 79.463,12.431 79.319,12.336 79.276,12.308 79.233,12.283 79.188,12.258 79.061,12.19 78.93,12.134 78.793,12.093 78.756,12.082 78.723,12.067 78.686,12.057 78.536,12.021 78.383,12 78.227,12 H 29.893 c -2.205,0 -4,1.795 -4,4 v 94 c 0,2.206 1.795,4 4,4 h 66 c 2.207,0 4,-1.794 4,-4 V 36.667 c 0,-0.075 -0.012,-0.149 -0.019,-0.224 z m -50.253,70.144 c -0.338,-0.585 -0.829,-2.274 -1.444,-4.825 -0.553,-2.582 -1.444,-3.288 -3.35,-3.318 h -1.414 v 8.144 h -4.64 V 86.15 c 1.506,-0.245 3.749,-0.43 6.238,-0.43 3.073,0 5.224,0.461 6.699,1.629 1.229,0.983 1.905,2.428 1.905,4.332 0,2.645 -1.875,4.457 -3.656,5.102 v 0.093 c 1.443,0.583 2.242,1.966 2.766,3.872 0.645,2.336 1.289,5.039 1.689,5.839 h -4.793 z m 12.442,0.307 c -2.365,0 -4.701,-0.614 -5.869,-1.26 l 0.953,-3.872 c 1.26,0.646 3.195,1.291 5.193,1.291 2.15,0 3.287,-0.892 3.287,-2.243 0,-1.291 -0.982,-2.028 -3.472,-2.92 -3.442,-1.198 -5.685,-3.103 -5.685,-6.114 0,-3.534 2.949,-6.239 7.836,-6.239 2.335,0 4.055,0.493 5.285,1.045 l -1.045,3.78 c -0.83,-0.399 -2.305,-0.983 -4.333,-0.983 -2.028,0 -3.011,0.921 -3.011,1.997 0,1.321 1.167,1.906 3.841,2.919 3.656,1.353 5.377,3.259 5.377,6.178 0.002,3.47 -2.671,6.421 -8.357,6.421 z m 16.592,0 c -2.367,0 -4.701,-0.614 -5.869,-1.26 l 0.952,-3.872 c 1.26,0.646 3.196,1.291 5.192,1.291 2.152,0 3.289,-0.892 3.289,-2.243 0,-1.291 -0.984,-2.028 -3.473,-2.92 -3.441,-1.198 -5.686,-3.103 -5.686,-6.114 0,-3.534 2.951,-6.239 7.837,-6.239 2.335,0 4.056,0.493 5.285,1.045 l -1.045,3.78 c -0.829,-0.399 -2.304,-0.983 -4.333,-0.983 -2.027,0 -3.011,0.921 -3.011,1.997 0,1.321 1.167,1.906 3.841,2.919 3.656,1.353 5.377,3.259 5.377,6.178 0.002,3.47 -2.671,6.421 -8.356,6.421 z M 29.893,79.917 V 16 h 46.334 v 20.466 c 0,1.104 0.895,2 2,2 h 17.666 l 0.002,41.451 H 29.893 z" /><g
       style="fill:#e4f363;fill-opacity:1"
       id="g13"><path
         style="fill:#e4f363;fill-opacity:1"
         inkscape:connector-curvature="0"
         id="path15"
         d="m 41.058,61.335 c -3.705,0 -6.718,3.013 -6.718,6.723 0,3.699 3.014,6.716 6.718,6.716 3.708,0 6.725,-3.017 6.725,-6.716 0,-3.71 -3.017,-6.723 -6.725,-6.723 z" /></g><g
       style="fill:#e4f363;fill-opacity:1"
       id="g17"><path
         style="fill:#e4f363;fill-opacity:1"
         inkscape:connector-curvature="0"
         id="path19"
         d="m 35.039,44.27 c -0.385,0 -0.699,0.314 -0.699,0.703 v 8.529 c 0,0.387 0.313,0.699 0.699,0.699 10.956,0 19.873,8.916 19.873,19.875 0,0.381 0.312,0.697 0.698,0.697 h 8.534 0.031 c 0.389,0 0.702,-0.316 0.702,-0.697 L 64.841,73.855 C 64.719,57.523 51.392,44.27 35.039,44.27 z" /></g><g
       style="fill:#e4f363;fill-opacity:1"
       id="g21"><path
         style="fill:#e4f363;fill-opacity:1"
         inkscape:connector-curvature="0"
         id="path23"
         d="M 79.638,73.855 C 79.523,49.357 59.552,29.471 35.038,29.471 c -0.385,0 -0.699,0.313 -0.699,0.702 v 8.779 c 0,0.387 0.313,0.698 0.699,0.698 18.98,0 34.421,15.445 34.421,34.425 0,0.381 0.313,0.697 0.697,0.697 h 8.781 0.034 c 0.384,0 0.706,-0.316 0.706,-0.697 l -0.039,-0.22 z" /></g></g></svg>