<?xml version="1.0" encoding="UTF-8" standalone="no"?>
<!-- Generator: Adobe Illustrator 16.0.0, SVG Export Plug-In . SVG Version: 6.00 Build 0)  -->

<svg
   xmlns:dc="http://purl.org/dc/elements/1.1/"
   xmlns:cc="http://creativecommons.org/ns#"
   xmlns:rdf="http://www.w3.org/1999/02/22-rdf-syntax-ns#"
   xmlns:svg="http://www.w3.org/2000/svg"
   xmlns="http://www.w3.org/2000/svg"
   xmlns:sodipodi="http://sodipodi.sourceforge.net/DTD/sodipodi-0.dtd"
   xmlns:inkscape="http://www.inkscape.org/namespaces/inkscape"
   version="1.1"
   id="Layer_1"
   x="0px"
   y="0px"
   width="266.893px"
   height="266.895px"
   viewBox="0 0 266.893 266.895"
   enable-background="new 0 0 266.893 266.895"
   xml:space="preserve"
   inkscape:version="0.48.4 r9939"
   sodipodi:docname="social-icons.svg"
   inkscape:export-filename="/var/www/qgis/images/mailing-list.png"
   inkscape:export-xdpi="10.12"
   inkscape:export-ydpi="10.12"><metadata
     id="metadata9"><rdf:RDF><cc:Work
         rdf:about=""><dc:format>image/svg+xml</dc:format><dc:type
           rdf:resource="http://purl.org/dc/dcmitype/StillImage" /><dc:title></dc:title></cc:Work></rdf:RDF></metadata><defs
     id="defs7" /><sodipodi:namedview
     pagecolor="#ffffff"
     bordercolor="#666666"
     borderopacity="1"
     objecttolerance="10"
     gridtolerance="10"
     guidetolerance="10"
     inkscape:pageopacity="0"
     inkscape:pageshadow="2"
     inkscape:window-width="1920"
     inkscape:window-height="1031"
     id="namedview5"
     showgrid="false"
     inkscape:zoom="0.70710678"
     inkscape:cx="-444.50897"
     inkscape:cy="-318.86385"
     inkscape:window-x="0"
     inkscape:window-y="25"
     inkscape:window-maximized="1"
     inkscape:current-layer="Layer_1" /><path
     id="Blue_1_"
     d="m -317.37351,148.08499 c 7.854,0 14.223,-6.369 14.223,-14.225 V -95.410013 c 0,-7.856997 -6.368,-14.223997 -14.223,-14.223997 h -229.27 c -7.857,0 -14.224,6.367 -14.224,14.223997 V 133.85999 c 0,7.855 6.366,14.225 14.224,14.225 h 229.27 z"
     inkscape:connector-curvature="0"
     style="fill:#3c5a99" /><path
     style="fill:#ffffff"
     inkscape:connector-curvature="0"
     d="m -415.06901,128.62299 v -99.803 h 33.499 l 5.016,-38.895 h -38.515 v -24.832 c 0,-11.261 3.127,-18.935 19.275,-18.935 l 20.596,-0.009 v -34.788 c -3.562,-0.474 -15.788,-1.533 -30.012,-1.533 -29.695,0 -50.025,18.126 -50.025,51.413 v 28.684 h -33.585 v 38.895 h 33.585 v 99.803 h 40.166 z"
     id="path2986" /><path
     id="path5"
     d="m -313.51491,158.81465 h -239.24803 c -4.40009,0 -7.96342,3.56333 -7.96342,7.95937 v 233.53823 c 0,4.40413 3.56333,7.96745 7.96342,7.96745 h 239.24803 c 4.40009,0 7.96341,-3.56534 7.96341,-7.96745 V 166.77604 c 0,-4.39806 -3.56534,-7.96139 -7.96341,-7.96139 z"
     inkscape:connector-curvature="0"
     style="fill:#dc4a38" /><g
     transform="matrix(2.3635435,0,0,2.3635435,-594.3716,127.97165)"
     id="g3013"><path
       style="fill:#ffffff"
       inkscape:connector-curvature="0"
       d="m 70.479,71.845 -3.983,-3.093 c -1.213,-1.006 -2.872,-2.334 -2.872,-4.765 0,-2.441 1.659,-3.993 3.099,-5.43 4.64,-3.652 9.276,-7.539 9.276,-15.73 0,-8.423 -5.3,-12.854 -7.84,-14.956 h 6.849 l 7.189,-4.517 H 60.418 c -5.976,0 -14.588,1.414 -20.893,6.619 -4.752,4.1 -7.07,9.753 -7.07,14.842 0,8.639 6.633,17.396 18.346,17.396 1.106,0 2.316,-0.109 3.534,-0.222 -0.547,1.331 -1.1,2.439 -1.1,4.32 0,3.431 1.763,5.535 3.317,7.528 -4.977,0.342 -14.268,0.893 -21.117,5.103 -6.523,3.879 -8.508,9.525 -8.508,13.51 0,8.202 7.731,15.842 23.762,15.842 19.01,0 29.074,-10.519 29.074,-20.932 10e-4,-7.651 -4.419,-11.417 -9.284,-15.515 z M 56,59.107 c -9.51,0 -13.818,-12.294 -13.818,-19.712 0,-2.888 0.547,-5.87 2.428,-8.199 1.773,-2.218 4.861,-3.657 7.744,-3.657 9.168,0 13.923,12.404 13.923,20.382 0,1.996 -0.22,5.533 -2.762,8.09 -1.778,1.774 -4.753,3.096 -7.515,3.096 z m 0.109,44.543 c -11.826,0 -19.452,-5.657 -19.452,-13.523 0,-7.864 7.071,-10.524 9.504,-11.405 4.64,-1.561 10.611,-1.779 11.607,-1.779 1.105,0 1.658,0 2.538,0.111 8.407,5.983 12.056,8.965 12.056,14.629 0,6.859 -5.639,11.967 -16.253,11.967 z"
       id="path3015" /><polygon
       style="fill:#ffffff"
       points="92.923,47.863 92.923,58.938 81.866,58.938 81.866,64.469 92.923,64.469 92.923,75.612 98.393,75.612 98.393,64.469 109.506,64.469 109.506,58.938 98.393,58.938 98.393,47.863 "
       id="polygon3017" /></g><path
     style="fill:#2aa9e0;fill-opacity:1"
     inkscape:connector-curvature="0"
     d="m -317.37351,688.08499 c 7.854,0 14.223,-6.369 14.223,-14.225 V 444.59 c 0,-7.857 -6.368,-14.224 -14.223,-14.224 h -229.27 c -7.857,0 -14.224,6.367 -14.224,14.224 v 229.26999 c 0,7.855 6.366,14.225 14.224,14.225 h 229.27 z"
     id="path3034" /><path
     style="fill:#ffffff;fill-opacity:1"
     inkscape:connector-curvature="0"
     id="path5-8"
     d="m -327.03077,494.11004 c -7.72431,3.42649 -16.02705,5.74126 -24.7392,6.78265 8.89272,-5.33081 15.72366,-13.77212 18.93914,-23.83113 -8.32373,4.93712 -17.54188,8.52108 -27.3542,10.45269 -7.85659,-8.37202 -19.05148,-13.60205 -31.44102,-13.60205 -23.78811,0 -43.07578,19.28557 -43.07578,43.07367 0,3.3761 0.38107,6.66403 1.11592,9.81653 -35.79973,-1.79618 -67.53888,-18.94545 -88.7844,-45.00632 -3.70784,6.36168 -5.8326,13.76056 -5.8326,21.65494 0,14.94471 7.60463,28.12894 19.16274,35.85325 -7.06083,-0.2236 -13.70281,-2.16151 -19.51022,-5.38749 -0.005,0.17951 -0.005,0.36007 -0.005,0.54169 0,20.8697 14.84815,38.27827 34.55363,42.23806 -3.6144,0.98469 -7.41987,1.51063 -11.34817,1.51063 -2.77562,0 -5.47355,-0.27084 -8.10431,-0.77264 5.48196,17.11252 21.38933,29.56609 40.23925,29.91252 -14.74211,11.55392 -33.31488,18.44052 -53.49698,18.44052 -3.47689,0 -6.90547,-0.20471 -10.27528,-0.60259 19.06302,12.22264 41.70475,19.35382 66.03034,19.35382 79.23033,0 122.55804,-65.63561 122.55804,-122.5591 0,-1.86756 -0.042,-3.72463 -0.12491,-5.57329 8.41505,-6.07196 15.71735,-13.6577 21.49222,-22.29636 z" /><path
     id="path3834"
     d="m -317.37351,968.08499 c 7.854,0 14.223,-6.369 14.223,-14.225 V 724.59 c 0,-7.857 -6.368,-14.224 -14.223,-14.224 h -229.27 c -7.857,0 -14.224,6.367 -14.224,14.224 v 229.26999 c 0,7.855 6.366,14.225 14.224,14.225 h 229.27 z"
     inkscape:connector-curvature="0"
     style="fill:#62e3ff;fill-opacity:1" /><path
     inkscape:connector-curvature="0"
     id="Github__x28_alt_x29_"
     d="m -375.12696,744.46404 c 3.21367,7.29806 5.2957,19.41939 2.18913,28.29408 12.70364,10.84683 17.06819,37.21545 10.93749,58.76356 18.10645,1.38161 39.67105,-0.6647 53.59425,4.89192 -13.01402,-1.67275 -30.78813,-4.95509 -47.57342,-3.81245 -3.1807,0.21699 -7.89409,-0.12087 -7.66337,4.35357 19.43312,1.52718 38.7399,3.1862 54.6957,8.16603 -15.82396,-2.58467 -35.03185,-6.52074 -54.6957,-7.07009 -8.12208,16.02718 -24.46513,23.9048 -47.02952,25.56383 2.42534,5.27646 7.07008,7.28708 8.20447,15.77721 1.692,12.68441 -2.64784,31.26056 1.63431,39.71499 2.05456,4.05143 5.40282,4.15856 7.66064,7.62218 -5.52643,6.53996 -19.22988,-0.73336 -20.78727,-7.62218 -2.67257,-11.79721 4.07066,-30.08768 -3.27685,-38.08343 0.51913,12.8657 -3.04338,30.93919 0.5466,42.43426 1.41458,4.52111 5.49896,6.2653 4.37555,10.34144 -25.68743,2.60939 -14.95321,-33.24643 -19.15021,-54.41 -3.87564,0.27467 -2.17267,5.80384 -2.18641,8.16329 -0.10985,20.66641 4.22997,49.01267 -18.04601,46.24671 -0.65097,-4.34258 2.98843,-5.82033 4.37554,-9.7866 4.06242,-11.62966 -0.76085,-28.95604 1.10144,-42.9891 -8.50114,6.40813 0.89268,28.78575 -4.37555,40.25884 -3.03514,6.60315 -12.81624,9.47623 -20.23516,6.52899 0.96684,-4.91665 6.0428,-4.12286 8.19624,-8.7044 3.01041,-6.38614 0.022,-15.58495 1.09595,-25.02547 -15.73602,3.13952 -27.94253,-0.45595 -33.91667,-10.33869 -2.67256,-4.43597 -3.33452,-9.66849 -6.56468,-13.59906 -3.21369,-3.93332 -8.35006,-4.46344 -9.8388,-9.78936 19.48808,-4.69141 20.23518,20.05664 37.73737,20.66915 5.36711,0.19503 8.15779,-1.54914 13.12389,-2.71652 1.38984,-6.24056 4.36455,-10.89352 8.75108,-14.1539 -21.77883,-2.9802 -39.76445,-9.76188 -48.12825,-26.10493 -19.79844,0.97509 -37.91587,3.61745 -54.69564,7.6112 15.23063,-5.53192 34.01551,-7.51506 54.15179,-8.16604 -1.18659,-7.13051 -11.58845,-5.16935 -18.04603,-4.89466 -12.00047,0.53285 -27.10747,2.02433 -36.64687,3.81519 13.82705,-4.93037 33.22994,-4.31511 51.96266,-4.35356 -5.72968,-17.96362 -3.74379,-46.49941 8.75108,-57.12652 -3.54054,-8.92413 -2.44184,-23.52026 2.1864,-30.46948 13.95066,0.62625 22.41061,6.71027 31.17541,12.51685 10.86882,-3.09007 22.29797,-4.62824 37.19074,-3.80971 6.26255,0.34609 12.77779,3.16149 17.49392,2.71652 4.62825,-0.434 9.72894,-5.62806 14.2226,-7.61121 5.85326,-2.58467 10.80564,-3.57074 17.50217,-3.81245 z"
     style="fill:#ffffff;fill-opacity:1" /><path
     id="path3863"
     d="m -317.37351,1248.085 c 7.854,0 14.223,-6.369 14.223,-14.225 v -229.27 c 0,-7.857 -6.368,-14.224 -14.223,-14.224 h -229.27 c -7.857,0 -14.224,6.367 -14.224,14.224 v 229.27 c 0,7.855 6.366,14.225 14.224,14.225 h 229.27 z"
     inkscape:connector-curvature="0"
     style="fill:#5cb85c;fill-opacity:1" /><g
     id="g3884"
     transform="matrix(1,0,0,1.102305,3.083252e-5,-114.50235)"><rect
       id="rect4024"
       height="125.66827"
       width="179.52611"
       y="1056.3914"
       x="-521.77209"
       style="fill:none;stroke:#ffffff;stroke-width:12.56682777" /><path
       id="path4026"
       transform="translate(-8.1786701e-6,0)"
       d="m -412.46875,1120.8438 -19.5625,17.0937 -19.53125,-17.0625 -68.375,60.9375 175.875,0 -68.40625,-60.9687 z"
       style="fill:none;stroke:#ffffff;stroke-width:12.56681919;stroke-linejoin:bevel"
       inkscape:connector-curvature="0" /><path
       id="path4028"
       d="m -521.75024,1059.5501 h 179.46814 l -89.73682,78.3931 z"
       inkscape:connector-curvature="0"
       style="fill:none;stroke:#ffffff;stroke-width:12.56668472;stroke-linejoin:bevel" /></g><g
     transform="matrix(1,0,0,1.102305,565.45554,-1100.2804)"
     id="g3897"><rect
       style="fill:none;stroke:#ffffff;stroke-width:12.56682777"
       x="-521.77209"
       y="1056.3914"
       width="179.52611"
       height="125.66827"
       id="rect3899" /><path
       inkscape:connector-curvature="0"
       style="fill:none;stroke:#ffffff;stroke-width:12.56681919;stroke-linejoin:bevel"
       d="m -412.46875,1120.8438 -19.5625,17.0937 -19.53125,-17.0625 -68.375,60.9375 175.875,0 -68.40625,-60.9687 z"
       transform="translate(-8.1786701e-6,0)"
       id="path3901" /><path
       style="fill:none;stroke:#ffffff;stroke-width:12.56668472;stroke-linejoin:bevel"
       inkscape:connector-curvature="0"
       d="m -521.75024,1059.5501 h 179.46814 l -89.73682,78.3931 z"
       id="path3903" /></g></svg>